<svg xmlns="http://www.w3.org/2000/svg" width="32" height="32"><circle cx="16" cy="16" r="15" fill="#ffd700"/><path d="m22.9,16.59c-0.28,-0.16 -0.57,-0.29 -0.86,-0.4c0.29,-0.11 0.58,-0.24 0.86,-0.4c1.92,-1.11 2.99,-3.12 3,-5.19c-1.79,-1.03 -4.07,-1.11 -6,0c-0.28,0.16 -0.54,0.35 -0.78,0.54c0.05,-0.31 0.08,-0.63 0.08,-0.95c0,-2.22 -1.21,-4.15 -3,-5.19c-1.79,1.04 -3,2.97 -3,5.19c0,0.32 0.03,0.64 0.08,0.95c-0.24,-0.2 -0.5,-0.39 -0.78,-0.55c-1.92,-1.11 -4.2,-1.03 -6,0c0,2.07 1.07,4.08 3,5.19c0.28,0.16 0.57,0.29 0.86,0.4c-0.29,0.11 -0.58,0.24 -0.86,0.4c-1.92,1.11 -2.99,3.12 -3,5.19c1.79,1.03 4.07,1.11 6,0c0.28,-0.16 0.54,-0.35 0.78,-0.54c-0.05,0.32 -0.08,0.64 -0.08,0.96c0,2.22 1.21,4.15 3,5.19c1.79,-1.04 3,-2.97 3,-5.19c0,-0.32 -0.03,-0.64 -0.08,-0.95c0.24,0.2 0.5,0.38 0.78,0.54c1.92,1.11 4.2,1.03 6,0c-0.01,-2.07 -1.08,-4.08 -3,-5.19zm-6.7,3.6c-2.21,0 -4,-1.79 -4,-4s1.79,-4 4,-4s4,1.79 4,4s-1.79,4 -4,4z" fill="#7d26cd"/></svg>
