<svg xmlns="http://www.w3.org/2000/svg" width="32" height="32"><circle cx="16" cy="16" r="15" fill="#ffc1c1"/><path d="m18.168538,17.71l1.4,-2.42c0.09,-0.15 0.05,-0.34 -0.08,-0.45l-1.48,-1.16c0.03,-0.22 0.05,-0.45 0.05,-0.68s-0.02,-0.46 -0.05,-0.69l1.48,-1.16c0.13,-0.11 0.17,-0.3 0.08,-0.45l-1.4,-2.42c-0.09,-0.15 -0.27,-0.21 -0.43,-0.15l-1.74,0.7c-0.36,-0.28 -0.75,-0.51 -1.18,-0.69l-0.26,-1.85c-0.03,-0.16 -0.18,-0.29 -0.35,-0.29l-2.8,0c-0.17,0 -0.32,0.13 -0.35,0.3l-0.26,1.85c-0.42,0.18 -0.82,0.41 -1.18,0.69l-1.74,-0.7c-0.16,-0.06 -0.34,0 -0.43,0.15l-1.4,2.42c-0.09,0.15 -0.05,0.34 0.08,0.45l1.48,1.16c-0.03,0.22 -0.05,0.45 -0.05,0.68s0.02,0.46 0.05,0.69l-1.48,1.16c-0.13,0.11 -0.17,0.3 -0.08,0.45l1.4,2.42c0.09,0.15 0.27,0.21 0.43,0.15l1.74,-0.7c0.36,0.28 0.75,0.51 1.18,0.69l0.26,1.85c0.03,0.16 0.18,0.29 0.35,0.29l2.8,0c0.17,0 0.32,-0.13 0.35,-0.3l0.26,-1.85c0.42,-0.18 0.82,-0.41 1.18,-0.69l1.74,0.7c0.16,0.06 0.34,0 0.43,-0.15zm-5.36,-2.71c-1.1,0 -2,-0.9 -2,-2c0,-1.1 0.9,-2 2,-2s2,0.9 2,2c0,1.1 -0.9,2 -2,2z" fill="#4f94cd"/><path d="m25.918538,22.67l-0.96,-0.74c0.02,-0.14 0.04,-0.29 0.04,-0.44c0,-0.15 -0.01,-0.3 -0.04,-0.44l0.95,-0.74c0.08,-0.07 0.11,-0.19 0.05,-0.29l-0.9,-1.55c-0.05,-0.1 -0.17,-0.13 -0.28,-0.1l-1.11,0.45c-0.23,-0.18 -0.48,-0.33 -0.76,-0.44l-0.17,-1.18c-0.01,-0.12 -0.11,-0.2 -0.21,-0.2l-1.79,0c-0.11,0 -0.21,0.08 -0.22,0.19l-0.17,1.18c-0.27,0.12 -0.53,0.26 -0.76,0.44l-1.11,-0.45c-0.1,-0.04 -0.22,0 -0.28,0.1l-0.9,1.55c-0.05,0.1 -0.04,0.22 0.05,0.29l0.95,0.74c-0.02,0.14 -0.03,0.29 -0.03,0.44c0,0.15 0.01,0.3 0.03,0.44l-0.95,0.74c-0.08,0.07 -0.11,0.19 -0.05,0.29l0.9,1.55c0.05,0.1 0.17,0.13 0.28,0.1l1.11,-0.45c0.23,0.18 0.48,0.33 0.76,0.44l0.17,1.18c0.02,0.11 0.11,0.19 0.22,0.19l1.79,0c0.11,0 0.21,-0.08 0.22,-0.19l0.17,-1.18c0.27,-0.12 0.53,-0.26 0.75,-0.44l1.12,0.45c0.1,0.04 0.22,0 0.28,-0.1l0.9,-1.55c0.06,-0.09 0.03,-0.21 -0.05,-0.28zm-4.29,0.16c-0.74,0 -1.35,-0.6 -1.35,-1.35s0.6,-1.35 1.35,-1.35s1.35,0.6 1.35,1.35s-0.61,1.35 -1.35,1.35z" fill="#4f94cd"/></svg>
