<svg xmlns="http://www.w3.org/2000/svg" width="32" height="32"><circle cx="16" cy="16" r="15" fill="#ffff00"/><path d="m19.64,14.1321c0.55,-1.47 1.43,-2.78 2.56,-3.83c0.38,-0.36 0.04,-1 -0.46,-0.85c-3.32,0.98 -5.75,4.05 -5.74,7.69c0,0 0,0 0,0c0.95,-1.28 2.2,-2.31 3.64,-3.01zm-4.22,-2.17c-0.6,-1.56 -1.63,-2.91 -2.96,-3.87c-0.42,-0.3 -0.96,0.19 -0.72,0.65c0.8,1.52 1.26,3.25 1.26,5.08c0,0.21 -0.03,0.41 -0.04,0.61c0.43,0.24 0.83,0.52 1.22,0.82c0.21,-1.18 0.65,-2.29 1.24,-3.29zm0.58,11.15l-9,0c-0.55,0 -1,-0.45 -1,-1s0.45,-1 1,-1l4.75,0c-0.57,-2.19 -2.04,-4.02 -4,-5.06l0,0c-0.16,-0.08 -0.26,-0.25 -0.26,-0.44c0,-0.27 0.22,-0.49 0.49,-0.5c0.01,0 0.02,0 0.02,0c4.42,0 8,3.58 8,8zm8.26,-7.06l0,0c-1.96,1.04 -3.44,2.87 -4,5.06l4.74,0c0.55,0 1,0.45 1,1s-0.45,1 -1,1l-5,0l-2,0c0,-0.68 -0.07,-1.35 -0.2,-2c-0.15,-0.72 -0.38,-1.42 -0.67,-2.07c1.39,-2.35 3.94,-3.93 6.87,-3.93c0.01,0 0.02,0 0.02,0c0.27,0 0.49,0.23 0.49,0.5c0.01,0.19 -0.1,0.35 -0.25,0.44z" fill="black"/></svg>
