<svg xmlns="http://www.w3.org/2000/svg" width="32" height="32"><circle cx="16" cy="16" r="15" fill="#ffaaaa"/><path d="m13.566998,23.534917l0,-5.600421l4.760863,0l0,5.600421c0,0.616046 0.535597,1.120084 1.190216,1.120084l3.570648,0c0.654619,0 1.190216,-0.504038 1.190216,-1.120084l0,-7.840589l2.023367,0c0.547499,0 0.809347,-0.638448 0.392771,-0.974473l-9.950205,-8.434233c-0.452282,-0.380829 -1.142607,-0.380829 -1.594889,0l-9.950205,8.434233c-0.404673,0.336025 -0.154728,0.974473 0.392771,0.974473l2.023367,0l0,7.840589c0,0.616046 0.535597,1.120084 1.190216,1.120084l3.570648,0c0.654619,0 1.190216,-0.504038 1.190216,-1.120084z" fill="#a52a2a"/></svg>
