<svg xmlns="http://www.w3.org/2000/svg" width="32" height="32"><circle cx="16" cy="16" r="15" fill="#9acdfd"/><path d="m25.6725,21.878441l-4.72,-4.72c-0.48,-0.48 -0.99,-0.59 -1.58,-0.59l-2.54,2.54c0,0.59 0.11,1.11 0.59,1.58l4.72,4.72c0.39,0.39 1.02,0.39 1.41,0l2.12,-2.12c0.39,-0.38 0.39,-1.02 0,-1.41z" fill="#9d34b5"/><path d="m20.6325,13.198441c0.39,0.39 1.02,0.39 1.41,0l0.71,-0.71l2.12,2.12c1.17,-1.17 1.17,-3.07 0,-4.24l-2.83,-2.83c-0.39,-0.39 -1.02,-0.39 -1.41,0l-0.71,0.71l0,-2.54c0,-0.62 -0.76,-0.95 -1.21,-0.5l-2.54,2.54c-0.45,0.45 -0.12,1.21 0.5,1.21l2.54,0l-0.71,0.71c-0.39,0.39 -0.39,1.02 0,1.41l0.35,0.35l-2.89,2.89l-4.11,-4.13l0,-1c0,-0.27 -0.11,-0.52 -0.29,-0.71l-2.02,-2.03c-0.39,-0.39 -1.02,-0.39 -1.41,0l-1.42,1.42c-0.39,0.39 -0.39,1.02 0,1.41l2.02,2.03c0.19,0.19 0.44,0.29 0.71,0.29l1,0l4.13,4.13l-0.85,0.85l-1.3,0c-0.53,0 -1.04,0.21 -1.41,0.59l-4.72,4.72c-0.39,0.39 -0.39,1.02 0,1.41l2.12,2.12c0.39,0.39 1.02,0.39 1.41,0l4.72,-4.72c0.38,-0.38 0.59,-0.88 0.59,-1.41l0,-1.29l5.15,-5.15l0.35,0.35z" fill="#9d34b5"/></svg>
